<?xml version="1.0" encoding="UTF-8"?> <!-- Generator: Adobe Illustrator 21.0.2, SVG Export Plug-In . SVG Version: 6.00 Build 0) --> <svg xmlns="http://www.w3.org/2000/svg" xmlns:xlink="http://www.w3.org/1999/xlink" id="Слой_1" x="0px" y="0px" viewBox="0 0 32 32" style="enable-background:new 0 0 32 32;" xml:space="preserve"> <style type="text/css"> .st0{fill:#C7C4B8;stroke:#C7C4B8;stroke-miterlimit:10;} </style> <path id="Arrow_Download" class="st0" d="M24.6,19.5c-0.3-0.3-0.8-0.3-1.1,0l-6.6,6.6V4c0-0.4-0.4-0.8-0.8-0.8S15.2,3.5,15.2,4v22.1 l-6.6-6.6c-0.3-0.3-0.8-0.3-1.1,0c-0.3,0.3-0.3,0.8,0,1.1l8,7.9c0.3,0.3,0.8,0.3,1.1,0l8-7.9C24.9,20.3,24.9,19.8,24.6,19.5 C24.3,19.2,24.9,19.8,24.6,19.5z"></path> </svg> 