<?xml version="1.0" encoding="UTF-8"?> <!-- Generator: Adobe Illustrator 21.0.2, SVG Export Plug-In . SVG Version: 6.00 Build 0) --> <svg xmlns="http://www.w3.org/2000/svg" xmlns:xlink="http://www.w3.org/1999/xlink" id="Layer_1" x="0px" y="0px" viewBox="0 0 24 24" style="enable-background:new 0 0 24 24;" xml:space="preserve"> <style type="text/css"> .st0{fill:#3D3C3C;} </style> <g> <path class="st0" d="M21.9,0H2.1C1.5,0,1,0.5,1,1.1v21.8C1,23.5,1.5,24,2.1,24h19.8c0.6,0,1.1-0.5,1.1-1.1V1.1 C23,0.5,22.5,0,21.9,0z M21,22H3V2h18V22z"></path> <path class="st0" d="M7.3,18.7c0.4,0.4,1,0.4,1.4,0l4.1-4.1c0.4-0.4,0.4-1,0-1.4s-1-0.4-1.4,0L8,16.7l-1.4-1.4 c-0.4-0.4-1-0.4-1.4,0s-0.4,1,0,1.4L7.3,18.7z"></path> <rect x="10" y="8" class="st0" width="8" height="1"></rect> <rect x="10" y="11" class="st0" width="8" height="1"></rect> <rect x="14" y="13" class="st0" width="4" height="1"></rect> <polygon class="st0" points="10,19 18,19 18,18 11,18 "></polygon> <polygon class="st0" points="12,17 18,17 18,16 13,16 "></polygon> <rect x="10" y="6" class="st0" width="8" height="1"></rect> <path class="st0" d="M9,6H6v3h3V6z M8,8H7V7h1V8z"></path> <path class="st0" d="M9,11H6v3h3V11z M8,13H7v-1h1V13z"></path> </g> </svg> 